<?xml version="1.0" encoding="UTF-8"?>
<svg width="28px" height="28px" viewBox="0 0 28 28" version="1.1" xmlns="http://www.w3.org/2000/svg" xmlns:xlink="http://www.w3.org/1999/xlink">
    <!-- Generator: Sketch 52.4 (67378) - http://www.bohemiancoding.com/sketch -->
    <title>ic_dribbble_black</title>
    <desc>Created with Sketch.</desc>
    <g id="ic_dribbble_black" stroke="none" stroke-width="1" fill="none" fill-rule="evenodd">
        <path d="M14,28 C6.2680135,28 0,21.7319865 0,14 C0,6.2680135 6.2680135,0 14,0 C21.7319865,0 28,6.2680135 28,14 C28,21.7319865 21.7319865,28 14,28 Z M6.91843056,12.7006313 L6.92222222,12.7006313 C9.62125694,12.6665063 11.9733542,12.3688605 13.9115278,11.8146452 C14.0056875,11.7874716 14.0821528,11.7185896 14.1181736,11.6282216 C14.1548264,11.5372216 14.1466111,11.4348466 14.0966875,11.350798 C13.2246042,9.87141601 12.1863194,8.49820073 11.0109028,7.27033267 C10.9148472,7.16985351 10.7657083,7.14394379 10.6418472,7.2052424 C8.5855,8.22393684 7.11559722,10.0869091 6.61004167,12.3145132 C6.58855556,12.4093049 6.6119375,12.5078882 6.67260417,12.5837216 C6.73263889,12.6576591 6.82300694,12.7006313 6.91843056,12.7006313 Z M15.5425764,11.9372424 C15.4597917,11.9694716 15.3947014,12.0358257 15.3631042,12.1186105 C15.3315069,12.2013952 15.3365625,12.294291 15.376375,12.3732841 C15.6398958,12.8946382 15.88825,13.4349507 16.1144861,13.9796868 C16.1719931,14.1193466 16.3198681,14.1996035 16.4690069,14.1680063 C18.0987917,13.8400271 19.7298403,13.8703605 21.1839444,14.2571105 C21.2104861,14.2640618 21.2376597,14.2678535 21.2648333,14.2678535 C21.3337153,14.2678535 21.4019653,14.2451035 21.4582083,14.2021313 C21.5359375,14.1414646 21.5814375,14.0485688 21.5808056,13.9506174 C21.5694306,12.2108743 20.9855139,10.577298 19.8909861,9.22683267 C19.8303194,9.15163129 19.733,9.09854795 19.6407361,9.10992295 C19.5440486,9.11118684 19.4530486,9.15731879 19.3942778,9.23378406 C18.5373611,10.3573813 17.2412431,11.2667493 15.5425764,11.9372424 Z M14.7760278,11.259798 C14.8335347,11.3602771 14.9397014,11.418416 15.0502917,11.418416 C15.0882083,11.418416 15.1267569,11.4114646 15.1634097,11.3975618 C16.9075764,10.7289646 18.2005347,9.81770073 19.0062639,8.68841601 C19.1010556,8.55570767 19.0795694,8.37244379 18.9557083,8.26627712 C17.0655625,6.62954101 14.4720625,6.00138823 11.9701944,6.69652712 C11.8640278,6.72622851 11.7812431,6.80838129 11.7509097,6.91391601 C11.7205764,7.01945073 11.7471181,7.13320073 11.8210556,7.21408962 C12.9528681,8.45522851 13.9475486,9.81706879 14.7760278,11.259798 Z M15.2670486,14.4846105 C15.3517292,14.4580688 15.421875,14.3967702 15.4591597,14.3152493 C15.4964444,14.2343605 15.4977083,14.1414646 15.4629514,14.0593118 C15.2247083,13.4968813 14.9870972,12.988166 14.7374792,12.5034646 C14.6679653,12.3682285 14.5125069,12.3018743 14.3652639,12.3454785 C12.2703681,12.9786868 9.70783333,13.3117216 6.74780556,13.3351035 C6.58034028,13.3363674 6.44257639,13.4684438 6.43436111,13.6359091 L6.42740972,13.750923 C6.42172222,13.8324438 6.41666667,13.9139646 6.41666667,13.9973813 C6.41666667,15.9633605 7.17057639,17.8288605 8.53936806,19.2513674 C8.59940278,19.3139299 8.68155556,19.3480549 8.76686806,19.3480549 C8.77697917,19.3480549 8.78709028,19.347423 8.79720139,19.346791 C8.89325694,19.3379438 8.97983333,19.2848605 9.03228472,19.2039716 C10.4813333,16.9681521 12.6956667,15.2916035 15.2670486,14.4846105 Z M15.5406806,15.047041 C13.0122708,15.8192771 10.8535486,17.4718118 9.461375,19.7013118 C9.37353472,19.8416035 9.40955556,20.0261313 9.54352778,20.1240827 C10.8516528,21.076423 12.3923333,21.5800827 13.9993681,21.5800827 C15.0060556,21.5800827 15.9868333,21.3841799 16.9126319,20.9980618 C17.0383889,20.9456105 17.1161181,20.8185896 17.1060069,20.6827216 C16.9682431,18.8633535 16.5726458,17.0332424 15.9299583,15.2423118 C15.8730833,15.0843257 15.7024583,14.9971174 15.5406806,15.047041 Z M21.2433472,14.9408743 C19.8777153,14.5326382 18.3446181,14.4631243 16.8083611,14.7392841 C16.7167292,14.7557146 16.6377361,14.8113257 16.5909722,14.8915827 C16.5442083,14.9718396 16.5353611,15.0685271 16.5656944,15.1557355 C17.1331806,16.7621382 17.5085556,18.4241521 17.6823403,20.0962771 C17.6937153,20.2062355 17.7619653,20.302291 17.8618125,20.3490549 C17.9047847,20.3692771 17.9509167,20.3793882 17.9970486,20.3793882 C18.0577153,20.3793882 18.1183819,20.3616938 18.1708333,20.3269368 C19.9086806,19.1793257 21.109375,17.3460549 21.4638958,15.297291 C21.4910694,15.1399368 21.3962778,14.9870063 21.2433472,14.9408743 Z" id="Shape" fill="#444444"></path>
    </g>
</svg>