<?xml version="1.0" encoding="UTF-8"?>
<svg width="28px" height="28px" viewBox="0 0 28 28" version="1.1" xmlns="http://www.w3.org/2000/svg" xmlns:xlink="http://www.w3.org/1999/xlink">
    <!-- Generator: Sketch 52.4 (67378) - http://www.bohemiancoding.com/sketch -->
    <title>ic_email</title>
    <desc>Created with Sketch.</desc>
    <g id="ic_email" stroke="none" stroke-width="1" fill="none" fill-rule="evenodd">
        <path d="M14,28 C6.2680135,28 0,21.7319865 0,14 C0,6.2680135 6.2680135,0 14,0 C21.7319865,0 28,6.2680135 28,14 C28,21.7319865 21.7319865,28 14,28 Z M14.5710397,15.5966076 C14.2329645,15.8707087 13.7553565,15.8707087 13.4172813,15.595976 L7.65525114,10.9084675 C7.39032315,10.6931024 7,10.8869942 7,11.2343574 L7,17.8146795 C7,18.2851987 7.371268,18.6666667 7.82920618,18.6666667 L20.1707938,18.6666667 C20.628732,18.6666667 21,18.2851987 21,17.8146795 L21,11.2330942 C21,10.8863626 20.6096769,10.6918392 20.3447489,10.9072044 L14.5710397,15.5966076 Z M8.17035476,9.33333333 C7.79109589,9.33333333 7.62759045,9.82848378 7.92878469,10.0659539 L13.5936951,14.532413 C13.8291184,14.7180945 14.1561293,14.7180945 14.3915525,14.5330446 L20.0687566,10.0659539 C20.3705655,9.82848378 20.2070601,9.33333333 19.8271865,9.33333333 L8.17035476,9.33333333 Z" id="Shape" fill="#666666"></path>
    </g>
</svg>