<?xml version="1.0" encoding="UTF-8"?>
<svg width="28px" height="28px" viewBox="0 0 28 28" version="1.1" xmlns="http://www.w3.org/2000/svg" xmlns:xlink="http://www.w3.org/1999/xlink">
    <!-- Generator: Sketch 52.4 (67378) - http://www.bohemiancoding.com/sketch -->
    <title>ic_Instagram_black</title>
    <desc>Created with Sketch.</desc>
    <g id="ic_Instagram_black" stroke="none" stroke-width="1" fill="none" fill-rule="evenodd">
        <path d="M14,28 C6.2680135,28 0,21.7319865 0,14 C0,6.2680135 6.2680135,0 14,0 C21.7319865,0 28,6.2680135 28,14 C28,21.7319865 21.7319865,28 14,28 Z M18.0147059,6.41666667 L9.98529412,6.41666667 C8.02254902,6.41666667 6.41666667,8.02254902 6.41666667,9.98529412 L6.41666667,18.0147059 C6.41666667,19.977451 8.02254902,21.5833333 9.98529412,21.5833333 L18.0147059,21.5833333 C19.977451,21.5833333 21.5833333,19.977451 21.5833333,18.0147059 L21.5833333,9.98529412 C21.5833333,8.02254902 19.977451,6.41666667 18.0147059,6.41666667 Z M17.3455882,14.4460784 C17.3455882,16.2910588 15.8449804,17.7916667 14,17.7916667 C12.1550196,17.7916667 10.6544118,16.2910588 10.6544118,14.4460784 C10.6544118,12.601098 12.1550196,11.1004902 14,11.1004902 C15.8449804,11.1004902 17.3455882,12.601098 17.3455882,14.4460784 Z M17.2581569,11.7696078 C16.4801961,10.8248137 15.3168235,10.2083333 14,10.2083333 C12.6831765,10.2083333 11.5198039,10.8248137 10.7418431,11.7696078 L7.30882353,11.7696078 L7.30882353,9.98529412 C7.30882353,8.50966667 8.50966667,7.30882353 9.98529412,7.30882353 L18.0147059,7.30882353 C19.4903333,7.30882353 20.6911765,8.50966667 20.6911765,9.98529412 L20.6911765,11.7696078 L17.2581569,11.7696078 Z M19.311902,8.84511765 C19.311902,8.57836275 19.0942157,8.36067647 18.8283529,8.36067647 L17.6078824,8.36067647 C17.3402353,8.36067647 17.122549,8.57836275 17.122549,8.84511765 L17.122549,10.0031373 C17.122549,10.269 17.3402353,10.4866863 17.6078824,10.4875784 L18.8283529,10.4875784 C19.0942157,10.4875784 19.311902,10.2698922 19.311902,10.0031373 L19.311902,8.84511765 Z" id="Shape" fill="#444444"></path>
    </g>
</svg>