<?xml version="1.0" encoding="UTF-8"?>
<svg width="28px" height="28px" viewBox="0 0 28 28" version="1.1" xmlns="http://www.w3.org/2000/svg" xmlns:xlink="http://www.w3.org/1999/xlink">
    <!-- Generator: Sketch 52.4 (67378) - http://www.bohemiancoding.com/sketch -->
    <title>ic_phone_black</title>
    <desc>Created with Sketch.</desc>
    <g id="ic_phone_black" stroke="none" stroke-width="1" fill="none" fill-rule="evenodd">
        <path d="M14,28 C6.2680135,28 0,21.7319865 0,14 C0,6.2680135 6.2680135,0 14,0 C21.7319865,0 28,6.2680135 28,14 C28,21.7319865 21.7319865,28 14,28 Z M17.7051126,5.83333333 L10.2941701,5.83333333 C9.60224261,5.83333333 9.04166667,6.35626247 9.04166667,7.0023913 L9.04166667,20.9976087 C9.04166667,21.6437375 9.60224261,22.1666667 10.2941701,22.1666667 L17.7051126,22.1666667 C18.3970394,22.1666667 18.9583333,21.6437375 18.9583333,20.9976087 L18.9583333,7.0023913 C18.9583333,6.35626247 18.3970394,5.83333333 17.7051126,5.83333333 Z M13.0317327,6.76670493 L14.9575011,6.76670493 C15.1778554,6.76670493 15.3565795,6.93409582 15.3565795,7.13965183 C15.3565795,7.3458774 15.1778554,7.51996393 14.9575011,7.51996393 L13.0317327,7.51996393 C12.8106605,7.51996393 12.6319363,7.3458774 12.6319363,7.13965183 C12.6319363,6.93409582 12.8106605,6.76670493 13.0317327,6.76670493 Z M13.9942576,21.5513378 C13.5470893,21.5513378 13.1846166,21.2132082 13.1846166,20.7960701 C13.1846166,20.3796015 13.5470893,20.0414719 13.9942576,20.0414719 C14.4414265,20.0414719 14.8038985,20.3796015 14.8038985,20.7960701 C14.8038985,21.2132082 14.4414265,21.5513378 13.9942576,21.5513378 Z M17.5773502,18.867727 C17.5773502,19.2393348 17.2543551,19.5406384 16.8559941,19.5406384 L11.121037,19.5406384 C10.7226765,19.5406384 10.3996814,19.2393348 10.3996814,18.867727 L10.3996814,9.1242382 C10.3996814,8.75263043 10.7226765,8.45132683 11.121037,8.45132683 L16.8559941,8.45132683 C17.2543551,8.45132683 17.5773502,8.75263043 17.5773502,9.1242382 L17.5773502,18.867727 Z" id="Shape" fill="#444444"></path>
    </g>
</svg>