<?xml version="1.0" encoding="UTF-8"?>
<svg width="28px" height="28px" viewBox="0 0 28 28" version="1.1" xmlns="http://www.w3.org/2000/svg" xmlns:xlink="http://www.w3.org/1999/xlink">
    <!-- Generator: Sketch 52.4 (67378) - http://www.bohemiancoding.com/sketch -->
    <title>ic_wechat_black</title>
    <desc>Created with Sketch.</desc>
    <g id="ic_wechat_black" stroke="none" stroke-width="1" fill="none" fill-rule="evenodd">
        <path d="M14,28 C6.2680135,28 0,21.7319865 0,14 C0,6.2680135 6.2680135,0 14,0 C21.7319865,0 28,6.2680135 28,14 C28,21.7319865 21.7319865,28 14,28 Z M17.4898889,10.7394 C16.7297083,8.5022 14.4382778,7 11.7881944,7 C8.50451389,7 5.83333333,9.3548 5.83333333,12.25 C5.83333333,13.8047 6.594875,15.2453 7.93352778,16.2463 L7.23051389,17.6932 C7.16313889,17.8311 7.19172222,17.9984 7.30129167,18.1041 C7.36594444,18.1671 7.44965278,18.2 7.53472222,18.2 C7.59256944,18.2 7.65109722,18.1853 7.7035,18.1538 L9.50425,17.0954 C9.98063889,17.2697 10.4876528,17.3894 11.0144028,17.4503 C11.1294167,17.465 11.2335417,17.4202 11.3070417,17.3355 C11.3805417,17.2501 11.409125,17.1339 11.384625,17.0233 C11.3138472,16.7132 11.2777778,16.4024 11.2777778,16.1 C11.2777778,13.398 13.8727361,11.2 17.0625,11.2 L17.0625,10.8934 L17.0740694,10.8892 L17.1632222,11.2049 C17.2721111,11.1951 17.3789583,11.1531 17.4449722,11.06 C17.509625,10.9669 17.5273194,10.8472 17.4898889,10.7394 Z M9.57638889,11.2 C9.01356944,11.2 8.55555556,10.7289 8.55555556,10.15 C8.55555556,9.5711 9.01356944,9.1 9.57638889,9.1 C10.1392083,9.1 10.5972222,9.5711 10.5972222,10.15 C10.5972222,10.7289 10.1392083,11.2 9.57638889,11.2 Z M13.6597222,11.2 C13.0969028,11.2 12.6388889,10.7289 12.6388889,10.15 C12.6388889,9.5711 13.0969028,9.1 13.6597222,9.1 C14.2225417,9.1 14.6805556,9.5711 14.6805556,10.15 C14.6805556,10.7289 14.2225417,11.2 13.6597222,11.2 Z M22.1666667,16.1 C22.1666667,13.7837 19.8772778,11.9 17.0625,11.9 C14.2477222,11.9 11.9583333,13.7837 11.9583333,16.1 C11.9583333,18.4163 14.2477222,20.3 17.0625,20.3 C17.5885694,20.3 18.1139583,20.2314 18.6257361,20.0956 L20.3128333,20.9636 C20.3618333,20.9881 20.4135556,21 20.4652778,21 C20.5489861,21 20.6313333,20.9685 20.6959861,20.9076 C20.7994306,20.8089 20.8334583,20.6549 20.7810556,20.5198 L20.3189583,19.3305 C21.4813472,18.5374 22.1666667,17.3481 22.1666667,16.1 Z M15.3611111,15.4 C14.9854444,15.4 14.6805556,15.0857 14.6805556,14.7 C14.6805556,14.3143 14.9854444,14 15.3611111,14 C15.7367778,14 16.0416667,14.3143 16.0416667,14.7 C16.0416667,15.0857 15.7367778,15.4 15.3611111,15.4 Z M18.7638889,15.4 C18.3882222,15.4 18.0833333,15.0857 18.0833333,14.7 C18.0833333,14.3143 18.3882222,14 18.7638889,14 C19.1395556,14 19.4444444,14.3143 19.4444444,14.7 C19.4444444,15.0857 19.1395556,15.4 18.7638889,15.4 Z" id="Shape" fill="#444444"></path>
    </g>
</svg>